<svg xmlns="http://www.w3.org/2000/svg" xmlns:xlink="http://www.w3.org/1999/xlink" width="500" zoomAndPan="magnify" viewBox="0 0 375 374.999991" height="500" preserveAspectRatio="xMidYMid meet" version="1.0"><defs><filter x="0%" y="0%" width="100%" height="100%" id="39d518202b"><feColorMatrix values="0 0 0 0 1 0 0 0 0 1 0 0 0 0 1 0 0 0 1 0" color-interpolation-filters="sRGB"/></filter><mask id="1d4eb376c5"><g filter="url(#39d518202b)"><rect x="-37.5" width="450" fill="#000000" y="-37.499999" height="449.999989" fill-opacity="0.898"/></g></mask><clipPath id="8e308467e5"><path d="M 0.320312 25 L 287.121094 25 L 287.121094 343 L 0.320312 343 Z M 0.320312 25 " clip-rule="nonzero"/></clipPath><clipPath id="d71881b87f"><rect x="0" width="288" y="0" height="367"/></clipPath></defs><rect x="-37.5" width="450" fill="#ffffff" y="-37.499999" height="449.999989" fill-opacity="1"/><rect x="-37.5" width="450" fill="#ffffff" y="-37.499999" height="449.999989" fill-opacity="1"/><rect x="-37.5" width="450" fill="#4fc8dc" y="-37.499999" height="449.999989" fill-opacity="1"/><g mask="url(#1d4eb376c5)"><g transform="matrix(1, 0, 0, 1, 64, 0)"><g clip-path="url(#d71881b87f)"><g clip-path="url(#8e308467e5)"><path stroke-linecap="butt" transform="matrix(1.768674, 0, 0, 1.768674, -209.9211, 43.194991)" fill="none" stroke-linejoin="miter" d="M 224.183256 82.042147 L 224.183256 74.570535 C 224.183256 55.013596 218.977642 45.077214 209.039051 35.973464 C 201.249405 28.819887 189.36285 24.725188 178.949415 24.725188 C 152.079882 24.725188 133.516802 44.918196 133.516802 72.582817 L 133.516802 85.62004 C 133.516802 100.923261 136.935678 111.018661 145.401149 120.321182 C 153.352021 128.945671 165.43514 134.630545 179.90352 134.630545 C 198.943651 134.630545 213.610803 124.532936 222.394309 105.335996 L 219.293469 103.865084 C 210.03291 122.74399 197.47274 131.21167 180.380572 131.21167 C 167.701138 131.21167 159.710511 125.169006 155.975809 115.74943 C 153.193004 108.752662 152.874969 99.770385 152.874969 87.727021 L 152.874969 82.042147 Z M 204.984106 78.623271 L 152.874969 78.623271 L 152.874969 65.904083 C 152.874969 50.282827 155.498757 42.334163 160.545353 36.609534 C 165.236368 31.242695 171.279031 28.144063 178.949415 28.144063 C 187.218323 28.144063 194.053865 31.878765 198.307582 37.762411 C 203.356386 44.600161 204.984106 51.912756 204.984106 67.215977 Z M 266.506193 123.221042 C 266.506193 116.862553 261.459598 111.853503 255.098899 111.853503 C 248.777956 111.853503 243.73136 116.862553 243.73136 123.221042 C 243.73136 129.581741 248.777956 134.630545 255.098899 134.630545 C 261.459598 134.630545 266.506193 129.581741 266.506193 123.221042 Z M 266.506193 123.221042 " stroke="#000000" stroke-width="6.105563" stroke-opacity="1" stroke-miterlimit="4"/></g></g></g></g></svg>